<svg width="1913" height="1080" viewBox="0 0 1913 1080" fill="none" xmlns="http://www.w3.org/2000/svg">
<g filter="url(#filter0_diif_1_2428)">
<path d="M1335 566.5L1302.5 345.328C1298.55 318.451 1330.64 298.9 1353.59 313.438C1435.33 365.218 1588.53 446.696 1757 457.5C1997.38 472.915 1522.36 873.061 1165.99 1020.81C1146.7 1028.81 1126 1014.34 1126 993.458V121.145C1126 86.7198 1077.47 79.4095 1067.33 112.307L826.096 894.82C815.894 927.913 759.134 920.169 755.337 885.748C694.921 338.009 370.496 143.036 218.346 130.068C205.04 128.934 193.733 138.718 190.617 151.703C61.2663 690.834 115.914 882.543 464.484 948.841C486.501 953.029 504.508 931.803 497.349 910.565L331.5 418.5" stroke="url(#paint0_linear_1_2428)" stroke-width="111" stroke-linecap="round" shape-rendering="crispEdges"/>
</g>
<defs>
<filter id="filter0_diif_1_2428" x="0.601196" y="-11.4277" width="1987.66" height="1225.64" filterUnits="userSpaceOnUse" color-interpolation-filters="sRGB">
<feFlood flood-opacity="0" result="BackgroundImageFix"/>
<feColorMatrix in="SourceAlpha" type="matrix" values="0 0 0 0 0 0 0 0 0 0 0 0 0 0 0 0 0 0 127 0" result="hardAlpha"/>
<feOffset dx="20" dy="45"/>
<feGaussianBlur stdDeviation="45.25"/>
<feComposite in2="hardAlpha" operator="out"/>
<feColorMatrix type="matrix" values="0 0 0 0 0 0 0 0 0 0 0 0 0 0 0 0 0 0 0.5 0"/>
<feBlend mode="normal" in2="BackgroundImageFix" result="effect1_dropShadow_1_2428"/>
<feBlend mode="normal" in="SourceGraphic" in2="effect1_dropShadow_1_2428" result="shape"/>
<feColorMatrix in="SourceAlpha" type="matrix" values="0 0 0 0 0 0 0 0 0 0 0 0 0 0 0 0 0 0 127 0" result="hardAlpha"/>
<feOffset dy="-34"/>
<feGaussianBlur stdDeviation="50"/>
<feComposite in2="hardAlpha" operator="arithmetic" k2="-1" k3="1"/>
<feColorMatrix type="matrix" values="0 0 0 0 0 0 0 0 0 0 0 0 0 0 0 0 0 0 0.25 0"/>
<feBlend mode="normal" in2="shape" result="effect2_innerShadow_1_2428"/>
<feColorMatrix in="SourceAlpha" type="matrix" values="0 0 0 0 0 0 0 0 0 0 0 0 0 0 0 0 0 0 127 0" result="hardAlpha"/>
<feOffset dx="-34" dy="-47"/>
<feGaussianBlur stdDeviation="50"/>
<feComposite in2="hardAlpha" operator="arithmetic" k2="-1" k3="1"/>
<feColorMatrix type="matrix" values="0 0 0 0 0.945098 0 0 0 0 0.592157 0 0 0 0 0.956863 0 0 0 1 0"/>
<feBlend mode="normal" in2="effect2_innerShadow_1_2428" result="effect3_innerShadow_1_2428"/>
<feGaussianBlur stdDeviation="1" result="effect4_foregroundBlur_1_2428"/>
</filter>
<linearGradient id="paint0_linear_1_2428" x1="1261" y1="-1139.5" x2="1261" y2="1093" gradientUnits="userSpaceOnUse">
<stop offset="0.0720937" stop-opacity="0.789512"/>
<stop offset="0.391766"/>
<stop offset="0.524313" stop-opacity="0.181068"/>
<stop offset="0.773814" stop-opacity="0.525724"/>
<stop offset="0.902463" stop-opacity="0.304297"/>
<stop offset="1" stop-opacity="0"/>
</linearGradient>
</defs>
</svg>
