<svg width="305" height="92" viewBox="0 0 305 92" fill="none" xmlns="http://www.w3.org/2000/svg">
<g filter="url(#filter0_d_3277_313)">
<mask id="path-1-outside-1_3277_313" maskUnits="userSpaceOnUse" x="121" y="16" width="171" height="39" fill="black">
<rect fill="white" x="121" y="16" width="171" height="39"/>
<path d="M168.856 40.416L170.2 41.248C167.128 46.56 160.28 52.704 146.584 52.704C134.36 52.704 123.8 46.304 123.8 35.36C123.8 24.352 134.744 18.016 147.16 18.016C156.824 18.016 163.992 21.984 168.472 27.872V18.72H170.008V30.752L169.24 30.88C163.416 22.496 155.928 19.552 147.16 19.552C135.32 19.552 125.4 25.44 125.4 35.36C125.4 45.216 134.936 51.168 146.584 51.168C159.32 51.168 166.296 45.152 168.856 40.416ZM220.354 18.72C227.458 18.72 231.938 22.496 231.938 28.64C231.938 34.208 227.586 38.304 220.354 38.304H192.833V50.528H205.122V52H179.522V50.528H191.234V20.256H179.522V18.72H220.354ZM220.802 36.832C226.306 36.832 230.338 33.632 230.338 28.64C230.338 23.52 226.562 20.256 220.802 20.256H192.833V36.832H220.802ZM240.471 18.72H289.879V30.432H288.279V20.192H266.007V50.528H278.295V52H252.119V50.528H264.407V20.192H242.071V30.432H240.471V18.72Z"/>
</mask>
<path d="M168.856 40.416L170.2 41.248C167.128 46.56 160.28 52.704 146.584 52.704C134.36 52.704 123.8 46.304 123.8 35.36C123.8 24.352 134.744 18.016 147.16 18.016C156.824 18.016 163.992 21.984 168.472 27.872V18.72H170.008V30.752L169.24 30.88C163.416 22.496 155.928 19.552 147.16 19.552C135.32 19.552 125.4 25.44 125.4 35.36C125.4 45.216 134.936 51.168 146.584 51.168C159.32 51.168 166.296 45.152 168.856 40.416ZM220.354 18.72C227.458 18.72 231.938 22.496 231.938 28.64C231.938 34.208 227.586 38.304 220.354 38.304H192.833V50.528H205.122V52H179.522V50.528H191.234V20.256H179.522V18.72H220.354ZM220.802 36.832C226.306 36.832 230.338 33.632 230.338 28.64C230.338 23.52 226.562 20.256 220.802 20.256H192.833V36.832H220.802ZM240.471 18.72H289.879V30.432H288.279V20.192H266.007V50.528H278.295V52H252.119V50.528H264.407V20.192H242.071V30.432H240.471V18.72Z" fill="#2B3A63"/>
<path d="M168.856 40.416L169.909 38.7155L168.105 37.599L167.097 39.465L168.856 40.416ZM170.2 41.248L171.931 42.2492L172.903 40.5691L171.253 39.5475L170.2 41.248ZM168.472 27.872L166.88 29.083L170.472 33.8035V27.872H168.472ZM168.472 18.72V16.72H166.472V18.72H168.472ZM170.008 18.72H172.008V16.72H170.008V18.72ZM170.008 30.752L170.337 32.7248L172.008 32.4463V30.752H170.008ZM169.24 30.88L167.597 32.021L168.32 33.061L169.569 32.8528L169.24 30.88ZM167.803 42.1165L169.147 42.9485L171.253 39.5475L169.909 38.7155L167.803 42.1165ZM168.469 40.2467C165.753 44.9424 159.564 50.704 146.584 50.704V54.704C160.996 54.704 168.503 48.1776 171.931 42.2492L168.469 40.2467ZM146.584 50.704C140.793 50.704 135.528 49.1841 131.768 46.5068C128.056 43.8632 125.8 40.102 125.8 35.36H121.8C121.8 41.562 124.824 46.4728 129.448 49.7652C134.024 53.0239 140.151 54.704 146.584 54.704V50.704ZM125.8 35.36C125.8 30.6135 128.125 26.8534 131.96 24.2059C135.843 21.5254 141.262 20.016 147.16 20.016V16.016C140.642 16.016 134.381 17.6746 129.688 20.9141C124.947 24.1866 121.8 29.0985 121.8 35.36H125.8ZM147.16 20.016C156.224 20.016 162.793 23.7116 166.88 29.083L170.064 26.661C165.191 20.2564 157.424 16.016 147.16 16.016V20.016ZM170.472 27.872V18.72H166.472V27.872H170.472ZM168.472 20.72H170.008V16.72H168.472V20.72ZM168.008 18.72V30.752H172.008V18.72H168.008ZM169.679 28.7792L168.911 28.9072L169.569 32.8528L170.337 32.7248L169.679 28.7792ZM170.883 29.739C164.631 20.7399 156.484 17.552 147.16 17.552V21.552C155.372 21.552 162.201 24.2521 167.597 32.021L170.883 29.739ZM147.16 17.552C140.938 17.552 135.077 19.0949 130.71 22.0859C126.295 25.1093 123.4 29.6383 123.4 35.36H127.4C127.4 31.1617 129.465 27.7867 132.97 25.3861C136.523 22.9531 141.542 21.552 147.16 21.552V17.552ZM123.4 35.36C123.4 41.0192 126.17 45.5475 130.468 48.592C134.719 51.6035 140.446 53.168 146.584 53.168V49.168C141.074 49.168 136.209 47.7565 132.78 45.3279C129.398 42.9325 127.4 39.5568 127.4 35.36H123.4ZM146.584 53.168C160.001 53.168 167.681 46.7952 170.615 41.367L167.097 39.465C164.911 43.5088 158.639 49.168 146.584 49.168V53.168ZM192.833 38.304V36.304H190.833V38.304H192.833ZM192.833 50.528H190.833V52.528H192.833V50.528ZM205.122 50.528H207.122V48.528H205.122V50.528ZM205.122 52V54H207.122V52H205.122ZM179.521 52H177.521V54H179.521V52ZM179.521 50.528V48.528H177.521V50.528H179.521ZM191.233 50.528V52.528H193.233V50.528H191.233ZM191.233 20.256H193.233V18.256H191.233V20.256ZM179.521 20.256H177.521V22.256H179.521V20.256ZM179.521 18.72V16.72H177.521V18.72H179.521ZM192.833 20.256V18.256H190.833V20.256H192.833ZM192.833 36.832H190.833V38.832H192.833V36.832ZM220.354 20.72C223.568 20.72 225.959 21.5738 227.512 22.8979C229.028 24.1903 229.938 26.0897 229.938 28.64H233.938C233.938 25.0463 232.607 21.9857 230.107 19.8541C227.644 17.7542 224.243 16.72 220.354 16.72V20.72ZM229.938 28.64C229.938 30.8705 229.082 32.7239 227.55 34.0462C225.997 35.3874 223.6 36.304 220.354 36.304V40.304C224.339 40.304 227.734 39.1726 230.165 37.0738C232.617 34.9561 233.938 31.9775 233.938 28.64H229.938ZM220.354 36.304H192.833V40.304H220.354V36.304ZM190.833 38.304V50.528H194.833V38.304H190.833ZM192.833 52.528H205.122V48.528H192.833V52.528ZM203.122 50.528V52H207.122V50.528H203.122ZM205.122 50H179.521V54H205.122V50ZM181.521 52V50.528H177.521V52H181.521ZM179.521 52.528H191.233V48.528H179.521V52.528ZM193.233 50.528V20.256H189.233V50.528H193.233ZM191.233 18.256H179.521V22.256H191.233V18.256ZM181.521 20.256V18.72H177.521V20.256H181.521ZM179.521 20.72H220.354V16.72H179.521V20.72ZM220.801 38.832C223.929 38.832 226.796 37.9223 228.92 36.1397C231.074 34.331 232.338 31.7196 232.338 28.64H228.338C228.338 30.5524 227.585 32.037 226.347 33.0763C225.079 34.1417 223.178 34.832 220.801 34.832V38.832ZM232.338 28.64C232.338 25.5557 231.183 22.8918 229.047 21.0228C226.938 19.1781 224.048 18.256 220.801 18.256V22.256C223.315 22.256 225.193 22.9659 226.412 24.0332C227.604 25.0762 228.338 26.6043 228.338 28.64H232.338ZM220.801 18.256H192.833V22.256H220.801V18.256ZM190.833 20.256V36.832H194.833V20.256H190.833ZM192.833 38.832H220.801V34.832H192.833V38.832ZM240.471 18.72V16.72H238.471V18.72H240.471ZM289.879 18.72H291.879V16.72H289.879V18.72ZM289.879 30.432V32.432H291.879V30.432H289.879ZM288.279 30.432H286.279V32.432H288.279V30.432ZM288.279 20.192H290.279V18.192H288.279V20.192ZM266.007 20.192V18.192H264.007V20.192H266.007ZM266.007 50.528H264.007V52.528H266.007V50.528ZM278.295 50.528H280.295V48.528H278.295V50.528ZM278.295 52V54H280.295V52H278.295ZM252.119 52H250.119V54H252.119V52ZM252.119 50.528V48.528H250.119V50.528H252.119ZM264.407 50.528V52.528H266.407V50.528H264.407ZM264.407 20.192H266.407V18.192H264.407V20.192ZM242.071 20.192V18.192H240.071V20.192H242.071ZM242.071 30.432V32.432H244.071V30.432H242.071ZM240.471 30.432H238.471V32.432H240.471V30.432ZM240.471 20.72H289.879V16.72H240.471V20.72ZM287.879 18.72V30.432H291.879V18.72H287.879ZM289.879 28.432H288.279V32.432H289.879V28.432ZM290.279 30.432V20.192H286.279V30.432H290.279ZM288.279 18.192H266.007V22.192H288.279V18.192ZM264.007 20.192V50.528H268.007V20.192H264.007ZM266.007 52.528H278.295V48.528H266.007V52.528ZM276.295 50.528V52H280.295V50.528H276.295ZM278.295 50H252.119V54H278.295V50ZM254.119 52V50.528H250.119V52H254.119ZM252.119 52.528H264.407V48.528H252.119V52.528ZM266.407 50.528V20.192H262.407V50.528H266.407ZM264.407 18.192H242.071V22.192H264.407V18.192ZM240.071 20.192V30.432H244.071V20.192H240.071ZM242.071 28.432H240.471V32.432H242.071V28.432ZM242.471 30.432V18.72H238.471V30.432H242.471Z" fill="#2B3A63" mask="url(#path-1-outside-1_3277_313)"/>
<mask id="path-3-outside-2_3277_313" maskUnits="userSpaceOnUse" x="14" y="17" width="101" height="37" fill="black">
<rect fill="white" x="14" y="17" width="101" height="37"/>
<path d="M38.416 19.552C26.576 19.552 16.72 25.504 16.72 35.424C16.72 45.152 26.32 51.104 37.904 51.104C46.288 51.104 53.84 48.608 59.664 44.576V37.216H37.904V35.68H61.264V45.344C55.248 49.888 46.992 52.64 37.904 52.64C25.616 52.64 15.12 46.304 15.12 35.424C15.12 24.416 26.064 18.016 38.416 18.016C48.208 18.016 55.248 21.984 59.792 27.872V18.72H61.264V30.816L60.56 30.88C54.8 22.496 47.248 19.552 38.416 19.552ZM93.411 52.704C82.019 52.704 72.995 48.224 72.995 40.544C72.995 32.736 82.019 28.64 93.411 28.576C104.867 28.576 113.891 32.736 113.891 40.544C113.891 48.224 104.867 52.704 93.411 52.704ZM93.411 51.168C104.163 51.168 112.291 47.2 112.291 40.544C112.291 33.824 104.163 30.112 93.411 30.112C82.723 30.176 74.595 33.824 74.595 40.544C74.595 47.2 82.723 51.168 93.411 51.168Z"/>
</mask>
<path d="M38.416 19.552C26.576 19.552 16.72 25.504 16.72 35.424C16.72 45.152 26.32 51.104 37.904 51.104C46.288 51.104 53.84 48.608 59.664 44.576V37.216H37.904V35.68H61.264V45.344C55.248 49.888 46.992 52.64 37.904 52.64C25.616 52.64 15.12 46.304 15.12 35.424C15.12 24.416 26.064 18.016 38.416 18.016C48.208 18.016 55.248 21.984 59.792 27.872V18.72H61.264V30.816L60.56 30.88C54.8 22.496 47.248 19.552 38.416 19.552ZM93.411 52.704C82.019 52.704 72.995 48.224 72.995 40.544C72.995 32.736 82.019 28.64 93.411 28.576C104.867 28.576 113.891 32.736 113.891 40.544C113.891 48.224 104.867 52.704 93.411 52.704ZM93.411 51.168C104.163 51.168 112.291 47.2 112.291 40.544C112.291 33.824 104.163 30.112 93.411 30.112C82.723 30.176 74.595 33.824 74.595 40.544C74.595 47.2 82.723 51.168 93.411 51.168Z" fill="#F197F4"/>
<path d="M59.664 44.576L60.2332 45.3982L60.664 45.1V44.576H59.664ZM59.664 37.216H60.664V36.216H59.664V37.216ZM37.904 37.216H36.904V38.216H37.904V37.216ZM37.904 35.68V34.68H36.904V35.68H37.904ZM61.264 35.68H62.264V34.68H61.264V35.68ZM61.264 45.344L61.8667 46.142L62.264 45.8419V45.344H61.264ZM59.792 27.872L59.0003 28.483L60.792 30.8045V27.872H59.792ZM59.792 18.72V17.72H58.792V18.72H59.792ZM61.264 18.72H62.264V17.72H61.264V18.72ZM61.264 30.816L61.3545 31.8119L62.264 31.7292V30.816H61.264ZM60.56 30.88L59.7358 31.4463L60.0674 31.9289L60.6505 31.8759L60.56 30.88ZM38.416 18.552C32.3425 18.552 26.7071 20.0765 22.5591 22.9456C18.3881 25.8306 15.72 30.0867 15.72 35.424H17.72C17.72 30.8412 19.9799 27.1614 23.6969 24.5904C27.4369 22.0035 32.6495 20.552 38.416 20.552V18.552ZM15.72 35.424C15.72 40.6607 18.3196 44.8677 22.3931 47.7302C26.4448 50.5773 31.9541 52.104 37.904 52.104V50.104C32.2699 50.104 27.1872 48.6547 23.5429 46.0938C19.9204 43.5483 17.72 39.9153 17.72 35.424H15.72ZM37.904 52.104C46.4856 52.104 54.2373 49.5492 60.2332 45.3982L59.0948 43.7538C53.4427 47.6668 46.0904 50.104 37.904 50.104V52.104ZM60.664 44.576V37.216H58.664V44.576H60.664ZM59.664 36.216H37.904V38.216H59.664V36.216ZM38.904 37.216V35.68H36.904V37.216H38.904ZM37.904 36.68H61.264V34.68H37.904V36.68ZM60.264 35.68V45.344H62.264V35.68H60.264ZM60.6613 44.546C54.8361 48.9459 46.7971 51.64 37.904 51.64V53.64C47.1869 53.64 55.6599 50.8301 61.8667 46.142L60.6613 44.546ZM37.904 51.64C31.9178 51.64 26.4367 50.0947 22.4817 47.2957C18.5511 44.5141 16.12 40.4983 16.12 35.424H14.12C14.12 41.2297 16.9369 45.8219 21.3263 48.9283C25.6913 52.0173 31.6022 53.64 37.904 53.64V51.64ZM16.12 35.424C16.12 30.2977 18.6516 26.2328 22.7069 23.413C26.7852 20.5773 32.3981 19.016 38.416 19.016V17.016C32.0819 17.016 26.0468 18.6547 21.5651 21.771C17.0604 24.9032 14.12 29.5423 14.12 35.424H16.12ZM38.416 19.016C47.904 19.016 54.6493 22.845 59.0003 28.483L60.5837 27.261C55.8467 21.123 48.512 17.016 38.416 17.016V19.016ZM60.792 27.872V18.72H58.792V27.872H60.792ZM59.792 19.72H61.264V17.72H59.792V19.72ZM60.264 18.72V30.816H62.264V18.72H60.264ZM61.1735 29.8201L60.4695 29.8841L60.6505 31.8759L61.3545 31.8119L61.1735 29.8201ZM61.3842 30.3137C55.4077 21.6146 47.5207 18.552 38.416 18.552V20.552C46.9753 20.552 54.1923 23.3774 59.7358 31.4463L61.3842 30.3137ZM93.411 28.576V27.576L93.4054 27.576L93.411 28.576ZM93.411 30.112V29.112L93.405 29.112L93.411 30.112ZM93.411 51.704C87.8279 51.704 82.9085 50.6035 79.4231 48.6334C75.956 46.6738 73.995 43.9209 73.995 40.544H71.995C71.995 44.8471 74.546 48.1742 78.4389 50.3746C82.3135 52.5645 87.6021 53.704 93.411 53.704V51.704ZM73.995 40.544C73.995 37.1061 75.9524 34.4205 79.41 32.5338C82.8951 30.6322 87.8184 29.6074 93.4166 29.576L93.4054 27.576C87.6116 27.6086 82.3269 28.6638 78.452 30.7782C74.5496 32.9075 71.995 36.1739 71.995 40.544H73.995ZM93.411 29.576C99.0382 29.576 103.976 30.6008 107.467 32.5095C110.932 34.4035 112.891 37.1048 112.891 40.544H114.891C114.891 36.1752 112.338 32.8925 108.427 30.7545C104.542 28.6312 99.2398 27.576 93.411 27.576V29.576ZM112.891 40.544C112.891 43.9205 110.93 46.6733 107.456 48.633C103.962 50.6032 99.0269 51.704 93.411 51.704V53.704C99.2511 53.704 104.556 52.5648 108.438 50.375C112.34 48.1747 114.891 44.8475 114.891 40.544H112.891ZM93.411 52.168C98.8915 52.168 103.79 51.1595 107.358 49.2318C110.941 47.2964 113.291 44.3556 113.291 40.544H111.291C111.291 43.3884 109.577 45.7596 106.408 47.4722C103.224 49.1925 98.6825 50.168 93.411 50.168V52.168ZM113.291 40.544C113.291 36.6966 110.936 33.8016 107.347 31.9221C103.778 30.0533 98.8819 29.112 93.411 29.112V31.112C98.6921 31.112 103.236 32.0267 106.419 33.6939C109.582 35.3504 111.291 37.6714 111.291 40.544H113.291ZM93.405 29.112C87.9693 29.1446 83.0907 30.086 79.5319 31.9457C75.9519 33.8165 73.595 36.695 73.595 40.544H75.595C75.595 37.673 77.3021 35.3675 80.4581 33.7183C83.6353 32.058 88.1647 31.1434 93.417 31.112L93.405 29.112ZM73.595 40.544C73.595 44.3552 75.945 47.2959 79.5188 49.2313C83.0786 51.1592 87.9617 52.168 93.411 52.168V50.168C88.1723 50.168 83.6474 49.1928 80.4712 47.4727C77.309 45.7601 75.595 43.3888 75.595 40.544H73.595Z" fill="#F197F4" mask="url(#path-3-outside-2_3277_313)"/>
</g>
<defs>
<filter id="filter0_d_3277_313" x="0.120117" y="7.01611" width="304.759" height="64.688" filterUnits="userSpaceOnUse" color-interpolation-filters="sRGB">
<feFlood flood-opacity="0" result="BackgroundImageFix"/>
<feColorMatrix in="SourceAlpha" type="matrix" values="0 0 0 0 0 0 0 0 0 0 0 0 0 0 0 0 0 0 127 0" result="hardAlpha"/>
<feOffset dy="4"/>
<feGaussianBlur stdDeviation="7.5"/>
<feComposite in2="hardAlpha" operator="out"/>
<feColorMatrix type="matrix" values="0 0 0 0 0 0 0 0 0 0 0 0 0 0 0 0 0 0 0.45 0"/>
<feBlend mode="normal" in2="BackgroundImageFix" result="effect1_dropShadow_3277_313"/>
<feBlend mode="normal" in="SourceGraphic" in2="effect1_dropShadow_3277_313" result="shape"/>
</filter>
</defs>
</svg>
